# xmcd
#
# Track frame offsets:
# 150
# 888
# 12731
# 26607
# 38914
# 51932
# 65289
# 77759
# 93363
# 106250
# 120702
# 132484
# 144047
# 158341
# 172423
# 189136
# 204014
# 214521
# 222150
# 230915
# 246815
# 259565
# 274298
# 287975
# 297196
# 305212
# 314723
# 329583
# 344535
#
# Disc length: 4740 seconds
#
#
# Revision: 0
# Processed by: cddbd v1.5.2PL0 Copyright (c) Steve Scherf et al.
# Submitted via: FreeRIP 2.96 
#
DISCID=af12821d
DTITLE=Dj Djalma - No Bailão Vol - 02
DYEAR=1900
DGENRE=Sertanejo
TTITLE0=Abertura
TTITLE1=Bão Também - Cesar Minotti and Fabiano
TTITLE2=Meló do Lalá - Mauricio and Marcelo
TTITLE3=Ficando Com as Erradas - Ataide and Alexandre
TTITLE4=Na Vara - Rick and Renner
TTITLE5=Roela do Eno - Teodoro and Sampaio
TTITLE6=Chora Carolina - Emilio and Eduardo
TTITLE7=Pensa - Trio Alto Astral
TTITLE8=Leilão - Herança
TTITLE9=O Tronco da Morena Rosa - Ataide and Alexandre
TTITLE10=O Negocio é Ficar - Mate Quente
TTITLE11=Turma da latinha - Juliano Cesar and Tradição
TTITLE12=Escreveu Não Leu, O Pau comeu - André and Adriano
TTITLE13=Amor Que Fica - Zezé di Camargo and Ivete Sangalo
TTITLE14=Que qui Tem - Daniel
TTITLE15=Dando Mole - Gino and Geno
TTITLE16=Aqui Não - Cesar Minotti and Fabiano
TTITLE17=Queimo a Lingua, Mais Não Sopro - Trio Alto Astral
TTITLE18=Alguém Viu Ela por Aí - Trio Parada Dura
TTITLE19=É Foda! - Trio Alto Astral
TTITLE20=Tá Bombando - Chico Amado and Chodó
TTITLE21=Caipirinha - Daniel
TTITLE22=Agarra, Agarra - Bonde do Forró
TTITLE23=Não Sou Cavalo - Trio alto Astral
TTITLE24=Carne de Pescoço - Leo Canhoto and Robertinho
TTITLE25=Bobão - Guilherme and Santiago
TTITLE26=Risca Faca - Herança
TTITLE27=Tá Pegando - Bruno and Marrone e Tradição
TTITLE28=Batidão Pantaneiro - Grupo Zingaros
EXTD=
EXTT0=
EXTT1=
EXTT2=
EXTT3=
EXTT4=
EXTT5=
EXTT6=
EXTT7=
EXTT8=
EXTT9=
EXTT10=
EXTT11=
EXTT12=
EXTT13=
EXTT14=
EXTT15=
EXTT16=
EXTT17=
EXTT18=
EXTT19=
EXTT20=
EXTT21=
EXTT22=
EXTT23=
EXTT24=
EXTT25=
EXTT26=
EXTT27=
EXTT28=
PLAYORDER=
